<svg xmlns="http://www.w3.org/2000/svg" xmlns:xlink="http://www.w3.org/1999/xlink" xmlns:lucid="lucid" width="1277" height="605.46"><g transform="translate(-60 -20)" lucid:page-tab-id="0_0"><path d="M0 0h1870.87v1322.84H0z" fill="#fff"/><path d="M650.9 360l22.28 56.9H740L650.9 360z" stroke="#000" stroke-opacity="0" fill="#aecbfa"/><path d="M740 416.9h-66.82l-22.27 56.9 89.1-56.9zM612 473.8l22.3-9.5 16.6-47.4h-22.2L612 473.8z" stroke="#000" stroke-opacity="0" fill="#4285f4"/><path d="M612 360l16.7 56.9h22.2l-16.6-47.45L612 360z" stroke="#000" stroke-opacity="0" fill="#aecbfa"/><path d="M624.8 371.38v91.03h44.8V371.4z" stroke="#000" stroke-opacity="0" fill-opacity="0"/><use xlink:href="#a" transform="matrix(1,0,0,1,612,478.79) translate(-2.481481481481481 17.77777777777778)"/><use xlink:href="#b" transform="matrix(1,0,0,1,612,478.79) translate(45.51234567901234 44.44444444444444)"/><use xlink:href="#c" transform="matrix(1,0,0,1,612,478.79) translate(11.592592592592595 71.11111111111111)"/><use xlink:href="#d" transform="matrix(1,0,0,1,612,478.79) translate(91.71604938271605 71.11111111111111)"/><use xlink:href="#e" transform="matrix(1,0,0,1,612,478.79) translate(28.2283950617284 97.77777777777777)"/><use xlink:href="#f" transform="matrix(1,0,0,1,612,478.79) translate(11.623456790123463 124.44444444444446)"/><use xlink:href="#g" transform="matrix(1,0,0,1,612,478.79) translate(75.69753086419752 124.44444444444446)"/><path d="M1317 423.26l-58.5-25.53v25.53l58.5 25.63zm0-44.73l-58.5-25.63v25.63l58.5 25.53z" stroke="#000" stroke-opacity="0" fill="#669df6"/><path d="M1200 378.5l58.5-25.6v25.6l-58.5 25.6v-25.6zM1200 423.3l58.5-25.6v25.6l-58.5 25.6v-25.6z" stroke="#000" stroke-opacity="0" fill="#aecbfa"/><path d="M1258.5 455.3l21.93-9.6 29.32 12.8-51.25 22.4v-25.6z" stroke="#000" stroke-opacity="0" fill="#4285f4"/><path d="M1258.5 352.9l-58.5 27.77V453l58.62 27.9L1317 453v-72.2z" stroke="#000" stroke-opacity="0" stroke-width=".01" fill-opacity="0"/><use xlink:href="#h" transform="matrix(1,0,0,1,1200,485.895) translate(28.314814814814817 17.77777777777778)"/><use xlink:href="#i" transform="matrix(1,0,0,1,1200,485.895) translate(9.209876543209873 44.44444444444444)"/><use xlink:href="#j" transform="matrix(1,0,0,1,1200,485.895) translate(7.4506172839506135 71.11111111111111)"/><path d="M1020 136.15c-.12 1.28.96 2.57 3.24 3.56l48.84 19.94c4.32 1.8 11.52 1.8 15.84 0l48.84-19.93c2.28-.98 3.36-2.26 3.24-3.55v-11.43c.12 1.24-.96 2.53-3.24 3.48l-48.84 19.94c-4.32 1.8-11.52 1.8-15.84 0l-48.84-19.94c-2.52-1.06-3.6-2.5-3.12-3.85l-.12 11.8z" stroke="#000" stroke-opacity="0" fill="#ba141a"/><path d="M1136.76 121.7c4.32 1.77 4.32 4.72 0 6.48l-48.84 20c-4.32 1.76-11.52 1.76-15.84 0l-48.84-20c-4.32-1.76-4.32-4.7 0-6.48l48.84-19.98c4.32-1.77 11.52-1.77 15.84 0l48.84 19.98z" stroke="#000" stroke-opacity="0" fill="#ba141a"/><path d="M1020 115.96c-.12 1.28.96 2.56 3.24 3.55l48.84 19.95c4.32 1.8 11.52 1.8 15.84 0l48.84-19.94c2.28-.98 3.36-2.26 3.24-3.54v-11.44c.12 1.25-.96 2.53-3.24 3.48l-48.84 19.94c-4.32 1.8-11.52 1.8-15.84 0L1023.24 108c-2.52-1.06-3.6-2.5-3.12-3.84l-.12 11.8z" stroke="#000" stroke-opacity="0" fill="#ba141a"/><path d="M1136.76 101.5c4.32 1.77 4.32 4.72 0 6.5l-48.84 19.97c-4.32 1.77-11.52 1.77-15.84 0L1023.24 108c-4.32-1.78-4.32-4.73 0-6.5l48.84-19.98c4.32-1.77 11.52-1.77 15.84 0l48.84 20z" stroke="#000" stroke-opacity="0" fill="#ba141a"/><path d="M1020 95.76c-.12 1.28.96 2.57 3.24 3.56l48.84 19.93c4.32 1.8 11.52 1.8 15.84 0l48.84-19.93c2.28-1 3.36-2.28 3.24-3.56V84.33c.12 1.24-.96 2.53-3.24 3.48l-48.84 19.95c-4.32 1.8-11.52 1.8-15.84 0l-48.84-19.94c-2.52-1.05-3.6-2.48-3.12-3.84l-.12 11.8z" stroke="#000" stroke-opacity="0" fill="#ba141a"/><path d="M1020 136.15c-.12 1.28.96 2.57 3.24 3.56l48.84 19.94c4.32 1.8 11.52 1.8 15.84 0l48.84-19.93c2.28-.98 3.36-2.26 3.24-3.55v-11.43c.12 1.24-.96 2.53-3.24 3.48l-48.84 19.94c-4.32 1.8-11.52 1.8-15.84 0l-48.84-19.94c-2.52-1.06-3.6-2.5-3.12-3.85l-.12 11.8z" stroke="#000" stroke-opacity="0" fill="#93171b"/><path d="M1020 115.96c-.12 1.28.96 2.56 3.24 3.55l48.84 19.95c4.32 1.8 11.52 1.8 15.84 0l48.84-19.94c2.28-.98 3.36-2.26 3.24-3.54v-11.44c.12 1.25-.96 2.53-3.24 3.48l-48.84 19.94c-4.32 1.8-11.52 1.8-15.84 0L1023.24 108c-2.52-1.06-3.6-2.5-3.12-3.84l-.12 11.8z" stroke="#000" stroke-opacity="0" fill="#93171b"/><path d="M1020 95.76c-.12 1.28.96 2.57 3.24 3.56l48.84 19.93c4.32 1.8 11.52 1.8 15.84 0l48.84-19.93c2.28-1 3.36-2.28 3.24-3.56V84.33c.12 1.24-.96 2.53-3.24 3.48l-48.84 19.95c-4.32 1.8-11.52 1.8-15.84 0l-48.84-19.94c-2.52-1.05-3.6-2.48-3.12-3.84l-.12 11.8z" stroke="#000" stroke-opacity="0" fill="#93171b"/><path d="M1136.76 81.3c4.32 1.78 4.32 4.73 0 6.5l-48.84 19.98c-4.32 1.77-11.52 1.77-15.84 0l-48.84-20c-4.32-1.75-4.32-4.7 0-6.47l48.84-19.97c4.32-1.77 11.52-1.77 15.84 0l48.84 19.98z" stroke="#000" stroke-opacity="0" fill="#ba141a"/><path d="M1065 88.32c-5.6 2.47-14.6 2.47-20.2 0-5.54-2.48-5.54-6.48 0-8.97 5.6-2.46 14.6-2.46 20.2 0 5.54 2.5 5.54 6.5 0 8.97zM1061.2 94.68l28.55-3.4-7.65 12.68-20.9-9.28z" stroke="#000" stroke-opacity="0" fill="#fff"/><path d="M1105.94 91.5l-17.07-7.6 17.07-7.58V91.5z" stroke="#000" stroke-opacity="0" fill="#76191c"/><path d="M1074.53 74.63l-11.16-1 9.92-2.5-1.32-5 8.4 3.4 10.34-2.1-4.73 4.6 7.7 3.73-11.32-.58-5.6 4.4-2.25-4.95z" stroke="#000" stroke-opacity="0" fill="#fff"/><path d="M1123.02 83.9l-17.08-7.58V91.5l17.08-7.6z" fill="#93171b"/><use xlink:href="#k" transform="matrix(1,0,0,1,990,170) translate(24.630555555555574 17.955555555555552)"/><use xlink:href="#l" transform="matrix(1,0,0,1,990,170) translate(91.8391975308642 17.955555555555552)"/><use xlink:href="#m" transform="matrix(1,0,0,1,990,170) translate(29.649382716049395 44.888888888888886)"/><path d="M488.82 134.65c2.76-2.32 5.4-4.64 8.16-6.98.83-.8 1.9-1.63 2.75-2.46-.72-.9-1.92-1.6-3-1.97-2.03-.8-4.07-.54-6 .58-2.5 1.46-3.6 3.78-3.6 6.67.13 1.15.37 2.23.97 3.2.24.35.48.66.72.98m3.12 2.2c1.32.46 2.88.4 4.2.15.72-.3 2.5-1.06 3.1-.95h.13l.12.06c.35.2.7.47.95.9.48.94.24 1.88-.72 2.43l-.24.2c-3.48 2-7.2 1.7-10.56-.15-1.68-.88-2.88-2.23-3.84-3.83l-.24-.37c-2.16-3.87-1.92-7.9.6-11.56.84-1.26 1.92-2.26 3.24-3l.6-.3c3.24-1.88 6.72-1.77 10.07-.1 1.68.88 3.24 2.2 4.2 3.94l.12.32c.83 1.26-.13 2.37-1.1 3.12-1.2.88-2.27 1.94-3.35 2.86-2.5 2.1-4.9 4.2-7.3 6.3zm25.9-17.5h.36c1.08 0 1.8.74 1.8 1.82 0 1.52-1.44 1.9-2.64 1.9-1.68 0-3.24 1-4.32 2.1-1.43 1.38-2.03 3.15-2.03 5.13v8.8c0 1.04-.6 1.84-1.67 1.84h-.36c-.96 0-1.68-.8-1.68-1.83v-9.3c0-3.6 1.8-6.54 4.66-8.57 1.8-1.23 3.72-1.9 5.88-1.9zm-45.33 6.26c1.45-1.4 2.77-2.82 4.2-4.23.5-.37 1.93-2.03 2.53-2.03h.72v.03c.84.17 1.44.7 1.44 1.57v.38c0 .6-.6 1.3-1.1 1.74-.83.9-1.67 1.75-2.5 2.6l-4.45 4.47c1.92 1.9 3.84 3.8 5.64 5.72.6.54 1.07 1.1 1.55 1.6.24.2.48.43.6.72.24.23.24.5.24.8v.5c-.13.8-.73 1.47-1.57 1.47h-.36c-.6 0-1.32-.68-1.68-1.06-.85-.8-1.7-1.66-2.53-2.48l-2.76-2.75v4.4c0 1-.6 1.84-1.67 1.84h-.24c-1.1 0-1.7-.84-1.7-1.85l.02-24.77c0-1 .6-1.8 1.67-1.8h.23c1.08 0 1.68.8 1.68 1.8v11.33zm-11.86-2.45c-.48-.26-1.56-.35-2.16-.38-3-.1-5.16 1.6-6.47 4.3-.47.9-.6 1.9-.6 2.94 0 3.13 1.57 5.3 4.32 6.65 1.08.5 2.4.57 3.48.57.96 0 2.4-.6 3.24-1l.12-.08h.72v.03c.84.17 1.56.68 1.56 1.57v.37c0 2.24-4.08 2.73-5.64 2.84-5.5.38-9.6-2.63-11.15-7.84-.24-.88-.36-1.8-.36-2.74v-.72c0-3.95 2.03-7.1 5.4-9.1 1.54-.94 3.22-1.43 5.14-1.43h.72c1.92 0 3.72.6 5.28 1.67l.12.1.12.13c.12.3.36.63.36.97v.35c0 .94-.72 1.43-1.56 1.6l-.12.03h-.24c-.48-.03-1.68-.57-2.28-.8zm-33.1 6.92c0 2.78 1.32 4.8 3.72 6.27 1.08.66 2.28.97 3.6.97 2.64 0 4.68-1.4 6.1-3.7.73-1.1.97-2.33.97-3.6 0-2.6-1.2-4.54-3.36-5.97-1.2-.8-2.4-1.17-3.83-1.17-3 0-5.28 1.55-6.6 4.26-.36.95-.6 1.92-.6 2.95zm6.84-10.87h.48c4.2 0 7.43 2.06 9.47 5.75.84 1.46 1.2 3.06 1.2 4.75v.74c0 3.95-1.92 7.1-5.28 9.1-1.56.92-3.35 1.4-5.15 1.4h-.72c-3.96 0-7.08-1.94-9.12-5.35-.83-1.58-1.3-3.33-1.3-5.16v-.74c0-3.95 1.9-7.07 5.26-9.1 1.56-.94 3.36-1.4 5.16-1.4zm-30.7 10.87c0 2.86 1.44 5 3.96 6.38.96.55 2.04.86 3.23.86 2.76 0 4.8-1.3 6.24-3.68.73-1.12.97-2.32.97-3.6 0-2.5-1.08-4.4-3.12-5.87-1.2-.86-2.52-1.3-4.08-1.3-3 0-5.15 1.56-6.47 4.27-.48.95-.72 1.92-.72 2.95zm14.4-8.15v-7.7c0-1.03.7-1.83 1.67-1.83h.36c1.1 0 1.7.8 1.7 1.82v16.22c0 3.95-1.93 7.1-5.4 9.1-1.57.92-3.25 1.4-5.17 1.4h-.72c-3.94 0-7.06-1.94-8.98-5.35-.96-1.58-1.44-3.33-1.44-5.16v-.74c0-3.95 1.92-7.1 5.4-9.1 1.56-.94 3.24-1.4 5.03-1.4h.73c2.76 0 5.04 1.03 6.84 2.72zM469.18 61.55H480v10.98h5.36c2.52 0 5.15-.4 7.46-1.23 1.15-.4 2.52-.95 3.67-1.64-1.58-1.97-2.32-4.5-2.53-6.95-.3-3.4.32-7.77 2.63-10.36l1.15-1.3 1.26 1.03c3.48 2.73 6.32 6.55 6.74 10.9 4.1-1.22 8.92-.88 12.5 1.17l1.47.9-.73 1.5c-3.04 5.92-9.45 7.76-15.65 7.42-9.24 23.25-29.5 34.23-54 34.23-12.7 0-24.36-4.78-30.97-16.03l-.1-.2-.95-2c-2.2-4.96-2.95-10.35-2.53-15.8l.2-1.64h9.15V61.55h10.72V50.77h21.53V40h12.8v21.55z" stroke="#000" stroke-opacity="0" fill="#394d54"/><path d="M504.02 65.6c.7-5.6-3.53-10-6.05-12.1-3.03 3.5-3.53 12.53 1.2 16.4-2.6 2.32-8.16 4.44-13.8 4.44h-68.8c-.52 5.92.5 11.37 2.9 16.03l.72 1.43c.5.84 1.1 1.64 1.7 2.43 2.83.2 5.35.26 7.77.2 4.74-.1 8.48-.68 11.4-1.68.4-.1.9.1 1.1.53.1.42-.1.9-.5 1.05-.4.16-.8.27-1.2.38-2.32.64-4.75 1.12-7.97 1.33h-.2c-.1 0-.2 0-.3.05-1.22.05-2.63.05-3.94.05-1.5 0-3.03 0-4.64-.1l-.1.05c5.75 6.45 14.73 10.32 25.92 10.32 23.8 0 44-10.58 52.87-34.28 6.36.63 12.5-1 15.24-6.4-4.44-2.6-10.1-1.75-13.32-.1z" stroke="#000" stroke-opacity="0" fill="#00aada"/><path d="M504 65.6c.67-5.6-3.5-10-6.03-12.1-3 3.45-3.52 12.55 1.17 16.37-2.6 2.37-8.12 4.46-13.73 4.46h-64.74c-.25 9.05 3.1 15.97 9.04 20.1 4.7-.1 8.46-.68 11.4-1.68.4-.14.92.1 1 .55.17.4 0 .86-.5 1.04-.34.14-.76.23-1.17.37-2.27.64-4.95 1.14-8.13 1.37l-.08-.1c8.12 4.2 19.85 4.15 33.33-1.03 15.08-5.78 29.07-16.88 38.87-29.53-.17.06-.25.15-.42.2z" stroke="#000" stroke-opacity="0" fill="#24b8eb"/><path d="M416.73 81.52c.4 3.16 1.38 6.14 2.75 8.85l.73 1.42c.5.84 1.06 1.66 1.63 2.43 2.83.2 5.5.25 7.84.2 4.7-.1 8.5-.65 11.4-1.67.4-.15.9.08 1.06.52.16.43-.08.9-.5 1.05-.4.15-.8.27-1.2.37-2.26.67-4.93 1.12-8.1 1.32-.07.03-.3.03-.4.03-1.2.07-2.58.1-3.96.1-1.45 0-3-.03-4.7-.1 5.76 6.46 14.8 10.34 26.06 10.34 20.3 0 38.02-7.77 48.3-24.88h-80.9z" stroke="#000" stroke-opacity="0" fill="#008bb8"/><path d="M421.3 81.52c1.2 5.56 4.16 9.93 8.4 12.9 4.63-.08 8.46-.64 11.35-1.66.47-.14.94.1 1.08.5.13.45-.07.92-.47 1.08-.4.12-.8.26-1.2.36-2.3.67-5.05 1.14-8.2 1.33 8.12 4.16 19.8 4.1 33.26-1.08 8.13-3.13 15.93-7.8 22.98-13.43h-67.2z" stroke="#000" stroke-opacity="0" fill="#039bc6"/><path d="M433.73 64.1h.73v7.78h-.73V64.1zm-1.4 0h.75v7.78h-.76V64.1zm-1.42 0h.78v7.78h-.77V64.1zm-1.4 0h.76v7.78h-.76V64.1zm-1.42 0h.78v7.78h-.78V64.1zm-1.37 0h.74v7.78h-.73V64.1zm-.76-.77h9.3v9.33h-9.3v-9.33zM444.46 53.33h.74v7.8l-.74-.02v-7.77zm-1.4 0h.75v7.8l-.75-.02v-7.77zm-1.42 0h.77v7.8l-.76-.02v-7.77zm-1.4 0h.75v7.8l-.77-.02v-7.77zm-1.42 0h.77v7.8l-.78-.02v-7.77zm-1.38 0h.73v7.8l-.73-.02v-7.77zm-.77-.77h9.3v9.33h-9.3v-9.34z" stroke="#000" stroke-opacity="0" fill="#00acd3"/><path d="M444.46 64.1h.74v7.78h-.74V64.1zm-1.4 0h.75v7.78h-.75V64.1zm-1.42 0h.77v7.78h-.76V64.1zm-1.4 0h.75v7.78h-.77V64.1zm-1.42 0h.77v7.78h-.78V64.1zm-1.38 0h.73v7.78h-.73V64.1zm-.77-.77h9.3v9.33h-9.3v-9.33z" stroke="#000" stroke-opacity="0" fill="#20c2ef"/><path d="M455.2 64.1h.73v7.78h-.74V64.1zm-1.42 0h.76v7.78h-.76V64.1zm-1.4 0h.76v7.78h-.76V64.1zm-1.42 0h.77v7.78h-.77V64.1zm-1.4 0h.76v7.78h-.76V64.1zm-1.4 0h.75v7.78h-.73V64.1zm-.76-.77h9.3v9.33h-9.3v-9.33z" stroke="#000" stroke-opacity="0" fill="#00acd3"/><path d="M455.2 53.33h.73v7.8l-.74-.02v-7.77zm-1.42 0h.76v7.8l-.76-.02v-7.77zm-1.4 0h.76v7.8l-.76-.02v-7.77zm-1.42 0h.77v7.8l-.77-.02v-7.77zm-1.4 0h.76v7.8l-.76-.02v-7.77zm-1.4 0h.75v7.8l-.73-.02v-7.77zm-.76-.77h9.3v9.33h-9.3v-9.34zM465.93 64.1h.73v7.78h-.73V64.1zm-1.42 0h.77v7.78h-.76V64.1zm-1.4 0h.77v7.78h-.76V64.1zm-1.4 0h.76v7.78h-.77V64.1zm-1.4 0h.75v7.78h-.76V64.1zm-1.4 0h.74v7.78h-.74V64.1zm-.77-.77h9.3v9.33h-9.3v-9.33z" stroke="#000" stroke-opacity="0" fill="#20c2ef"/><path d="M465.93 53.33h.73v7.8l-.73-.02v-7.77zm-1.42 0h.77v7.8l-.76-.02v-7.77zm-1.4 0h.77v7.8l-.76-.02v-7.77zm-1.4 0h.76v7.8l-.77-.02v-7.77zm-1.4 0h.75v7.8l-.76-.02v-7.77zm-1.4 0h.74v7.8l-.74-.02v-7.77zm-.77-.77h9.3v9.33h-9.3v-9.34z" stroke="#000" stroke-opacity="0" fill="#00acd3"/><path d="M465.93 42.57h.73v7.78h-.73v-7.78zm-1.42 0h.77v7.78h-.76v-7.78zm-1.4 0h.77v7.78h-.76v-7.78zm-1.4 0h.76v7.78h-.77v-7.78zm-1.4 0h.75v7.78h-.76v-7.78zm-1.4 0h.74v7.78h-.74v-7.78zm-.77-.78h9.3v9.33h-9.3V41.8z" stroke="#000" stroke-opacity="0" fill="#20c2ef"/><path d="M476.66 64.1h.73v7.78h-.74V64.1zm-1.42 0h.77v7.78h-.75V64.1zm-1.4 0h.76v7.78h-.76V64.1zm-1.4 0h.75v7.78h-.77V64.1zm-1.42 0h.76v7.78h-.76V64.1zm-1.38 0h.73v7.78h-.74V64.1zm-.78-.77h9.3v9.33h-9.3v-9.33z" stroke="#000" stroke-opacity="0" fill="#00acd3"/><path d="M445.4 87.8c1.4 0 2.55 1.14 2.55 2.56 0 1.42-1.15 2.58-2.56 2.58-1.43 0-2.58-1.16-2.58-2.58 0-1.42 1.15-2.57 2.57-2.57" stroke="#000" stroke-opacity="0" fill="#d4edf1"/><path d="M445.4 88.52c.22 0 .45.04.65.12-.22.13-.37.37-.37.66 0 .4.33.74.75.74.28 0 .53-.16.65-.4.1.23.15.47.15.72 0 1.02-.83 1.84-1.84 1.84-1.03 0-1.85-.82-1.85-1.84s.82-1.84 1.84-1.84M400 82.45h119.37c-2.63-.66-8.24-1.56-7.28-4.97-4.8 5.5-16.13 3.85-19 1.14-3.22 4.67-21.84 2.9-23.15-.74-4.06 4.73-16.47 4.73-20.53 0-1.3 3.63-19.94 5.4-23.16.74-2.86 2.7-14.2 4.35-18.98-1.14.96 3.42-4.65 4.3-7.28 4.97" stroke="#000" stroke-opacity="0" fill="#394d54"/><path d="M452.2 106.33c-6.36-3.02-9.83-7.14-11.8-11.62-2.35.7-5.18 1.12-8.48 1.3-1.23.08-2.54.1-3.9.1-1.6 0-3.25-.04-5-.13 5.83 5.84 13 10.34 26.27 10.42.95 0 1.94-.02 2.9-.07z" stroke="#000" stroke-opacity="0" fill="#bfdbe0"/><path d="M442.8 98.85c-.9-1.2-1.75-2.7-2.37-4.14-2.37.7-5.2 1.12-8.5 1.3 2.27 1.24 5.5 2.38 10.86 2.85z" stroke="#000" stroke-opacity="0" fill="#d4edf1"/><use xlink:href="#n" transform="matrix(1,0,0,1,370,150) translate(1.6250000000000142 17.955555555555552)"/><use xlink:href="#o" transform="matrix(1,0,0,1,370,150) translate(117.40092592592592 17.955555555555552)"/><use xlink:href="#p" transform="matrix(1,0,0,1,370,150) translate(46.38919753086421 44.888888888888886)"/><use xlink:href="#q" transform="matrix(1,0,0,1,370,150) translate(114.9070987654321 44.888888888888886)"/><use xlink:href="#r" transform="matrix(1,0,0,1,370,150) translate(35.821604938271605 71.82222222222221)"/><path d="M190.4 436.17c0 3.97-3.3 7.16-7.3 7.16H87.3c-4 0-7.3-3.2-7.3-7.16V364.2c0-4 3.3-7.18 7.3-7.18h95.8c4 0 7.3 3.2 7.3 7.17v71.97z" stroke="#000" stroke-opacity="0" fill="#3e3e3e"/><path d="M87.1 369h96.1v62.34H87.1V369z" stroke="#000" stroke-opacity="0" fill="#3999c6"/><path d="M142.4 363.47c0 .9-.74 1.65-1.66 1.65h-10.6c-.92 0-1.66-.74-1.66-1.65 0-.9.74-1.65 1.66-1.65h10.6c.92 0 1.66.74 1.66 1.65" stroke="#000" stroke-opacity="0" fill="#fff"/><path d="M154.4 357.02H87.22c-4.02 0-7.22 3.2-7.22 7.17v71.97c0 3.97 3.2 7.16 7.22 7.16h28.8l38.38-86.3z" stroke="#000" stroke-opacity="0" fill="#fff" fill-opacity=".15"/><path d="M200 471.03c0 3.2-2.6 5.87-5.85 5.87h-43.5c-3.26 0-5.85-2.68-5.85-5.87v-74.57c0-3.2 2.6-5.87 5.85-5.87h43.5c3.26 0 5.85 2.66 5.85 5.85v74.58z" stroke="#000" stroke-opacity="0" fill="#3e3e3e"/><path d="M149.6 400.18h45.6v64.73h-45.6V400.2z" stroke="#000" stroke-opacity="0" fill="#59b4d9"/><path d="M182.26 395.8c0 .8-1.05 1.44-2.35 1.44h-15c-1.3 0-2.36-.64-2.36-1.45 0-.8 1.05-1.46 2.35-1.46h15c1.3 0 2.36.65 2.36 1.45" stroke="#000" stroke-opacity="0" fill="#fff"/><path d="M188.2 390.6h-37.5c-3.25 0-5.9 2.66-5.9 5.85v74.58c0 3.28 2.65 5.87 5.9 5.87h5.13l32.38-86.3z" stroke="#000" stroke-opacity="0" fill="#fff" fill-opacity=".15"/><path d="M88.31 356.9h93.85c.97 0 1.45.5 1.45 1.47v83.53c0 .95-.48 1.47-1.45 1.47H88.3c-.95 0-1.44-.52-1.44-1.47v-83.53c0-.96.5-1.48 1.45-1.48z" stroke="#000" stroke-opacity="0" stroke-width="0" fill-opacity="0"/><path d="M81.56 364.26h107.4c1 0 1.44.5 1.44 1.44v69c0 .94-.44 1.44-1.43 1.44H81.57c-1 0-1.44-.5-1.44-1.44v-69c0-.94.44-1.44 1.43-1.44z" stroke="#000" stroke-opacity="0" stroke-width="0" fill-opacity="0"/><path d="M152.02 390.58h40.57c.95 0 1.43.52 1.43 1.47v83.25c0 .95-.48 1.47-1.44 1.47H152c-.96 0-1.44-.52-1.44-1.47v-83.25c0-.95.48-1.47 1.44-1.47z" stroke="#000" stroke-opacity="0" stroke-width="0" fill-opacity="0"/><path d="M146.27 396.54h52.3c.93 0 1.43.45 1.43 1.42v71.63c0 .96-.5 1.4-1.43 1.4h-52.3c-.94 0-1.44-.44-1.44-1.4v-71.64c0-.97.5-1.42 1.44-1.42z" stroke="#000" stroke-opacity="0" stroke-width="0" fill-opacity="0"/><path d="M266.94 418.4h-46.32v-3h46.32zm337.24 0h-87.12v-3h87.12z" stroke="#3a414a" stroke-width=".05" fill="#3a414a"/><path d="M219.12 421.53l-14.27-4.63 14.27-4.64z" fill="#3a414a"/><path d="M220.62 423.6L200 416.9l20.62-6.7zm-10.9-6.7l7.9 2.57v-5.15z" stroke="#3a414a" stroke-width=".05" fill="#3a414a"/><path d="M619.95 416.9l-14.27 4.63v-9.27z" fill="#3a414a"/><path d="M624.8 416.9l-20.62 6.7v-13.4zm-17.62 2.57l7.9-2.58-7.9-2.58z" stroke="#3a414a" stroke-width=".05" fill="#3a414a"/><use xlink:href="#s" transform="matrix(1,0,0,1,266.9382716049382,406.2283333333333) translate(0 14.222222222222223)"/><use xlink:href="#t" transform="matrix(1,0,0,1,266.9382716049382,406.2283333333333) translate(50.8641975308642 14.222222222222223)"/><use xlink:href="#u" transform="matrix(1,0,0,1,266.9382716049382,406.2283333333333) translate(141.58024691358025 14.222222222222223)"/><use xlink:href="#v" transform="matrix(1,0,0,1,266.9382716049382,406.2283333333333) translate(151.4567901234568 14.222222222222223)"/><path d="M741.65 112H655.8l-.75.06-.7.16-.64.28-.6.36-.53.46-.46.54-.36.6-.27.65-.16.7-.05.76v253.32h-3V116.44l.1-1.1.26-1.16.46-1.1.62-1 .76-.9.9-.75 1-.62 1.1-.44 1.14-.27 1.1-.1h85.97zm257.8 0H893v-3h106.44z" stroke="#3a414a" stroke-width=".05" fill="#3a414a"/><path d="M651.25 371.38h-3v-1.54h3z" fill="#3a414a"/><path d="M651.27 371.4h-3.04v-1.58h3.04zm-3-1.53v1.48h2.96v-1.48z" stroke="#3a414a" stroke-width=".05" fill="#3a414a"/><path d="M1015.2 110.5l-14.26 4.64v-9.28z" fill="#3a414a"/><path d="M1020.05 110.5l-20.6 6.7v-13.4zm-17.6 2.57l7.9-2.57-7.9-2.57z" stroke="#3a414a" stroke-width=".05" fill="#3a414a"/><g><use xlink:href="#w" transform="matrix(1,0,0,1,741.6543209876544,99.83333333333333) translate(0 14.222222222222223)"/><use xlink:href="#x" transform="matrix(1,0,0,1,741.6543209876544,99.83333333333333) translate(67.95061728395063 14.222222222222223)"/></g><path d="M788.32 275.4H699.3l-.78.06-.68.16-.65.27-.62.36-.53.46-.46.53-.38.6-.27.66-.16.7-.07.76v86.44h-3v-86.56l.1-1.12.26-1.14.44-1.1.62-1 .76-.9.9-.75 1-.62 1.1-.44 1.13-.27 1.12-.1h89.15zm293.18-7.44l-.1 1.1-.26 1.16-.45 1.08-.63 1-.76.9-.9.77-1 .6-1.08.46-1.15.28-1.1.1H918.34v-3h155.6l.75-.06.7-.17.64-.27.6-.37.54-.45.46-.54.37-.6.28-.65.16-.7.06-.76V162.27h3z" stroke="#3a414a" stroke-width=".05" fill="#3a414a"/><path d="M1081.5 160.77v1.54h-3v-1.53z" fill="#3a414a"/><path d="M1081.53 160.75v1.58h-3.06v-1.6zm-3 1.53h2.94v-1.48h-2.94z" stroke="#3a414a" stroke-width=".05" fill="#3a414a"/><path d="M693.23 382.17l-4.64-14.27h9.26z" fill="#3a414a"/><path d="M693.23 387.02l-6.7-20.62h13.4zm-2.57-17.62l2.57 7.92 2.57-7.92z" stroke="#3a414a" stroke-width=".05" fill="#3a414a"/><g><use xlink:href="#w" transform="matrix(1,0,0,1,788.320987654321,263.2304394981566) translate(0 14.222222222222223)"/><use xlink:href="#y" transform="matrix(1,0,0,1,788.320987654321,263.2304394981566) translate(67.95061728395063 14.222222222222223)"/></g><path d="M834.6 418.4H760.6v-3h73.97zm363.9 0H997.4v-3h201.1z" stroke="#3a414a" stroke-width=".05" fill="#3a414a"/><path d="M1200 418.4h-1.54v-3h1.54z" fill="#3a414a"/><path d="M1200.03 418.42h-1.6v-3.05h1.6zm-1.54-3v2.95h1.47v-2.95z" stroke="#3a414a" stroke-width=".05" fill="#3a414a"/><path d="M759.12 421.53l-14.26-4.63 14.26-4.64z" fill="#3a414a"/><path d="M760.62 423.6L740 416.9l20.62-6.7zm-10.9-6.7l7.9 2.57v-5.15z" stroke="#3a414a" stroke-width=".05" fill="#3a414a"/><g><use xlink:href="#z" transform="matrix(1,0,0,1,834.5935925925926,406.22833333333324) translate(0 14.222222222222223)"/><use xlink:href="#y" transform="matrix(1,0,0,1,834.5935925925926,406.22833333333324) translate(100.74074074074073 14.222222222222223)"/></g><defs><path fill="#3a414a" d="M169-182c-1-43-94-46-97-3 18 66 151 10 154 114 3 95-165 93-204 36-6-8-10-19-12-30l50-8c3 46 112 56 116 5-17-69-150-10-154-114-4-87 153-88 188-35 5 8 8 18 10 28" id="A"/><path fill="#3a414a" d="M85 4C-2 5 27-109 22-190h50c7 57-23 150 33 157 60-5 35-97 40-157h50l1 190h-47c-2-12 1-28-3-38-12 25-28 42-61 42" id="B"/><path fill="#3a414a" d="M195-6C206 82 75 100 31 46c-4-6-6-13-8-21l49-6c3 16 16 24 34 25 40 0 42-37 40-79-11 22-30 35-61 35-53 0-70-43-70-97 0-56 18-96 73-97 30 0 46 14 59 34l2-30h47zm-90-29c32 0 41-27 41-63 0-35-9-62-40-62-32 0-39 29-40 63 0 36 9 62 39 62" id="C"/><path fill="#3a414a" d="M185-48c-13 30-37 53-82 52C43 2 14-33 14-96s30-98 90-98c62 0 83 45 84 108H66c0 31 8 55 39 56 18 0 30-7 34-22zm-45-69c5-46-57-63-70-21-2 6-4 13-4 21h74" id="D"/><path fill="#3a414a" d="M137-138c1-29-70-34-71-4 15 46 118 7 119 86 1 83-164 76-172 9l43-7c4 19 20 25 44 25 33 8 57-30 24-41C81-84 22-81 20-136c-2-80 154-74 161-7" id="E"/><path fill="#3a414a" d="M115-3C79 11 28 4 28-45v-112H4v-33h27l15-45h31v45h36v33H77v99c-1 23 16 31 38 25v30" id="F"/><path fill="#3a414a" d="M25-224v-37h50v37H25zM25 0v-190h50V0H25" id="G"/><path fill="#3a414a" d="M110-194c64 0 96 36 96 99 0 64-35 99-97 99-61 0-95-36-95-99 0-62 34-99 96-99zm-1 164c35 0 45-28 45-65 0-40-10-65-43-65-34 0-45 26-45 65 0 36 10 65 43 65" id="H"/><path fill="#3a414a" d="M135-194c87-1 58 113 63 194h-50c-7-57 23-157-34-157-59 0-34 97-39 157H25l-1-190h47c2 12-1 28 3 38 12-26 28-41 61-42" id="I"/><g id="a"><use transform="matrix(0.06172839506172839,0,0,0.06172839506172839,0,0)" xlink:href="#A"/><use transform="matrix(0.06172839506172839,0,0,0.06172839506172839,14.814814814814813,0)" xlink:href="#B"/><use transform="matrix(0.06172839506172839,0,0,0.06172839506172839,28.33333333333333,0)" xlink:href="#C"/><use transform="matrix(0.06172839506172839,0,0,0.06172839506172839,41.85185185185185,0)" xlink:href="#C"/><use transform="matrix(0.06172839506172839,0,0,0.06172839506172839,55.37037037037037,0)" xlink:href="#D"/><use transform="matrix(0.06172839506172839,0,0,0.06172839506172839,67.71604938271605,0)" xlink:href="#E"/><use transform="matrix(0.06172839506172839,0,0,0.06172839506172839,80.06172839506173,0)" xlink:href="#F"/><use transform="matrix(0.06172839506172839,0,0,0.06172839506172839,87.40740740740742,0)" xlink:href="#G"/><use transform="matrix(0.06172839506172839,0,0,0.06172839506172839,93.58024691358025,0)" xlink:href="#H"/><use transform="matrix(0.06172839506172839,0,0,0.06172839506172839,107.09876543209877,0)" xlink:href="#I"/><use transform="matrix(0.06172839506172839,0,0,0.06172839506172839,120.61728395061729,0)" xlink:href="#E"/></g><path fill="#3a414a" d="M199 0l-22-63H83L61 0H9l90-248h61L250 0h-51zm-33-102l-36-108c-10 38-24 72-36 108h72" id="J"/><path fill="#3a414a" d="M24-248c93 1 206-16 204 79-1 75-69 88-152 82V0H24v-248zm52 121c47 0 100 7 100-41 0-47-54-39-100-39v80" id="K"/><path fill="#3a414a" d="M24 0v-248h52V0H24" id="L"/><g id="b"><use transform="matrix(0.06172839506172839,0,0,0.06172839506172839,0,0)" xlink:href="#J"/><use transform="matrix(0.06172839506172839,0,0,0.06172839506172839,15.987654320987653,0)" xlink:href="#K"/><use transform="matrix(0.06172839506172839,0,0,0.06172839506172839,30.80246913580247,0)" xlink:href="#L"/></g><path fill="#3a414a" d="M114-163C36-179 61-72 57 0H25l-1-190h30c1 12-1 29 2 39 6-27 23-49 58-41v29" id="M"/><path fill="#3a414a" d="M84 4C-5 8 30-112 23-190h32v120c0 31 7 50 39 49 72-2 45-101 50-169h31l1 190h-30c-1-10 1-25-2-33-11 22-28 36-60 37" id="N"/><path fill="#3a414a" d="M117-194c89-4 53 116 60 194h-32v-121c0-31-8-49-39-48C34-167 62-67 57 0H25l-1-190h30c1 10-1 24 2 32 11-22 29-35 61-36" id="O"/><path fill="#3a414a" d="M24-231v-30h32v30H24zM24 0v-190h32V0H24" id="P"/><path fill="#3a414a" d="M177-190C167-65 218 103 67 71c-23-6-38-20-44-43l32-5c15 47 100 32 89-28v-30C133-14 115 1 83 1 29 1 15-40 15-95c0-56 16-97 71-98 29-1 48 16 59 35 1-10 0-23 2-32h30zM94-22c36 0 50-32 50-73 0-42-14-75-50-75-39 0-46 34-46 75s6 73 46 73" id="Q"/><g id="c"><use transform="matrix(0.06172839506172839,0,0,0.06172839506172839,0,0)" xlink:href="#M"/><use transform="matrix(0.06172839506172839,0,0,0.06172839506172839,7.345679012345679,0)" xlink:href="#N"/><use transform="matrix(0.06172839506172839,0,0,0.06172839506172839,19.691358024691358,0)" xlink:href="#O"/><use transform="matrix(0.06172839506172839,0,0,0.06172839506172839,32.03703703703704,0)" xlink:href="#O"/><use transform="matrix(0.06172839506172839,0,0,0.06172839506172839,44.382716049382715,0)" xlink:href="#P"/><use transform="matrix(0.06172839506172839,0,0,0.06172839506172839,49.25925925925926,0)" xlink:href="#O"/><use transform="matrix(0.06172839506172839,0,0,0.06172839506172839,61.60493827160494,0)" xlink:href="#Q"/></g><path fill="#3a414a" d="M100-194c62-1 85 37 85 99 1 63-27 99-86 99S16-35 15-95c0-66 28-99 85-99zM99-20c44 1 53-31 53-75 0-43-8-75-51-75s-53 32-53 75 10 74 51 75" id="R"/><g id="d"><use transform="matrix(0.06172839506172839,0,0,0.06172839506172839,0,0)" xlink:href="#R"/><use transform="matrix(0.06172839506172839,0,0,0.06172839506172839,12.345679012345679,0)" xlink:href="#O"/></g><path fill="#3a414a" d="M143 4C61 4 22-44 18-125c-5-107 100-154 193-111 17 8 29 25 37 43l-32 9c-13-25-37-40-76-40-61 0-88 39-88 99 0 61 29 100 91 101 35 0 62-11 79-27v-45h-74v-28h105v86C228-13 192 4 143 4" id="S"/><path fill="#3a414a" d="M24 0v-261h32V0H24" id="T"/><path fill="#3a414a" d="M100-194c63 0 86 42 84 106H49c0 40 14 67 53 68 26 1 43-12 49-29l28 8c-11 28-37 45-77 45C44 4 14-33 15-96c1-61 26-98 85-98zm52 81c6-60-76-77-97-28-3 7-6 17-6 28h103" id="U"/><g id="e"><use transform="matrix(0.06172839506172839,0,0,0.06172839506172839,0,0)" xlink:href="#S"/><use transform="matrix(0.06172839506172839,0,0,0.06172839506172839,17.28395061728395,0)" xlink:href="#R"/><use transform="matrix(0.06172839506172839,0,0,0.06172839506172839,29.629629629629626,0)" xlink:href="#R"/><use transform="matrix(0.06172839506172839,0,0,0.06172839506172839,41.9753086419753,0)" xlink:href="#Q"/><use transform="matrix(0.06172839506172839,0,0,0.06172839506172839,54.32098765432098,0)" xlink:href="#T"/><use transform="matrix(0.06172839506172839,0,0,0.06172839506172839,59.197530864197525,0)" xlink:href="#U"/></g><path fill="#3a414a" d="M212-179c-10-28-35-45-73-45-59 0-87 40-87 99 0 60 29 101 89 101 43 0 62-24 78-52l27 14C228-24 195 4 139 4 59 4 22-46 18-125c-6-104 99-153 187-111 19 9 31 26 39 46" id="V"/><path fill="#3a414a" d="M85-194c31 0 48 13 60 33l-1-100h32l1 261h-30c-2-10 0-23-3-31C134-8 116 4 85 4 32 4 16-35 15-94c0-66 23-100 70-100zm9 24c-40 0-46 34-46 75 0 40 6 74 45 74 42 0 51-32 51-76 0-42-9-74-50-73" id="W"/><g id="f"><use transform="matrix(0.06172839506172839,0,0,0.06172839506172839,0,0)" xlink:href="#V"/><use transform="matrix(0.06172839506172839,0,0,0.06172839506172839,15.987654320987653,0)" xlink:href="#T"/><use transform="matrix(0.06172839506172839,0,0,0.06172839506172839,20.864197530864196,0)" xlink:href="#R"/><use transform="matrix(0.06172839506172839,0,0,0.06172839506172839,33.20987654320987,0)" xlink:href="#N"/><use transform="matrix(0.06172839506172839,0,0,0.06172839506172839,45.55555555555555,0)" xlink:href="#W"/></g><path fill="#3a414a" d="M233-177c-1 41-23 64-60 70L243 0h-38l-65-103H63V0H30v-248c88 3 205-21 203 71zM63-129c60-2 137 13 137-47 0-61-80-42-137-45v92" id="X"/><g id="g"><use transform="matrix(0.06172839506172839,0,0,0.06172839506172839,0,0)" xlink:href="#X"/><use transform="matrix(0.06172839506172839,0,0,0.06172839506172839,15.987654320987653,0)" xlink:href="#N"/><use transform="matrix(0.06172839506172839,0,0,0.06172839506172839,28.333333333333332,0)" xlink:href="#O"/></g><path fill="#3a414a" d="M67-125c0 53 21 87 73 88 37 1 54-22 65-47l45 17C233-25 199 4 140 4 58 4 20-42 15-125 8-235 124-281 211-232c18 10 29 29 36 50l-46 12c-8-25-30-41-62-41-52 0-71 34-72 86" id="Y"/><g id="h"><use transform="matrix(0.06172839506172839,0,0,0.06172839506172839,0,0)" xlink:href="#Y"/><use transform="matrix(0.06172839506172839,0,0,0.06172839506172839,15.987654320987653,0)" xlink:href="#G"/><use transform="matrix(0.06172839506172839,0,0,0.06172839506172839,22.160493827160494,0)" xlink:href="#F"/><use transform="matrix(0.06172839506172839,0,0,0.06172839506172839,29.50617283950617,0)" xlink:href="#G"/><use transform="matrix(0.06172839506172839,0,0,0.06172839506172839,35.67901234567901,0)" xlink:href="#D"/><use transform="matrix(0.06172839506172839,0,0,0.06172839506172839,48.02469135802469,0)" xlink:href="#E"/></g><path fill="#3a414a" d="M24-248c120-7 223 5 221 122C244-46 201 0 124 0H24v-248zM76-40c74 7 117-18 117-86 0-67-45-88-117-82v168" id="Z"/><path fill="#3a414a" d="M133-34C117-15 103 5 69 4 32 3 11-16 11-54c-1-60 55-63 116-61 1-26-3-47-28-47-18 1-26 9-28 27l-52-2c7-38 36-58 82-57s74 22 75 68l1 82c-1 14 12 18 25 15v27c-30 8-71 5-69-32zm-48 3c29 0 43-24 42-57-32 0-66-3-65 30 0 17 8 27 23 27" id="aa"/><path fill="#3a414a" d="M135-194c52 0 70 43 70 98 0 56-19 99-73 100-30 1-46-15-58-35L72 0H24l1-261h50v104c11-23 29-37 60-37zM114-30c31 0 40-27 40-66 0-37-7-63-39-63s-41 28-41 65c0 36 8 64 40 64" id="ab"/><g id="i"><use transform="matrix(0.06172839506172839,0,0,0.06172839506172839,0,0)" xlink:href="#Z"/><use transform="matrix(0.06172839506172839,0,0,0.06172839506172839,15.987654320987653,0)" xlink:href="#aa"/><use transform="matrix(0.06172839506172839,0,0,0.06172839506172839,28.333333333333332,0)" xlink:href="#F"/><use transform="matrix(0.06172839506172839,0,0,0.06172839506172839,35.67901234567901,0)" xlink:href="#aa"/><use transform="matrix(0.06172839506172839,0,0,0.06172839506172839,48.02469135802469,0)" xlink:href="#ab"/><use transform="matrix(0.06172839506172839,0,0,0.06172839506172839,61.54320987654321,0)" xlink:href="#aa"/><use transform="matrix(0.06172839506172839,0,0,0.06172839506172839,73.88888888888889,0)" xlink:href="#E"/><use transform="matrix(0.06172839506172839,0,0,0.06172839506172839,86.23456790123457,0)" xlink:href="#D"/></g><path fill="#3a414a" d="M87 75C49 33 22-17 22-94c0-76 28-126 65-167h31c-38 41-64 92-64 168S80 34 118 75H87" id="ac"/><path fill="#3a414a" d="M63-220v92h138v28H63V0H30v-248h175v28H63" id="ad"/><path fill="#3a414a" d="M135-143c-3-34-86-38-87 0 15 53 115 12 119 90S17 21 10-45l28-5c4 36 97 45 98 0-10-56-113-15-118-90-4-57 82-63 122-42 12 7 21 19 24 35" id="ae"/><path fill="#3a414a" d="M59-47c-2 24 18 29 38 22v24C64 9 27 4 27-40v-127H5v-23h24l9-43h21v43h35v23H59v120" id="af"/><path fill="#3a414a" d="M33-261c38 41 65 92 65 168S71 34 33 75H2C39 34 66-17 66-93S39-220 2-261h31" id="ag"/><g id="j"><use transform="matrix(0.06172839506172839,0,0,0.06172839506172839,0,0)" xlink:href="#ac"/><use transform="matrix(0.06172839506172839,0,0,0.06172839506172839,7.345679012345679,0)" xlink:href="#ad"/><use transform="matrix(0.06172839506172839,0,0,0.06172839506172839,20.864197530864196,0)" xlink:href="#P"/><use transform="matrix(0.06172839506172839,0,0,0.06172839506172839,25.74074074074074,0)" xlink:href="#M"/><use transform="matrix(0.06172839506172839,0,0,0.06172839506172839,33.08641975308642,0)" xlink:href="#U"/><use transform="matrix(0.06172839506172839,0,0,0.06172839506172839,45.432098765432094,0)" xlink:href="#ae"/><use transform="matrix(0.06172839506172839,0,0,0.06172839506172839,56.5432098765432,0)" xlink:href="#af"/><use transform="matrix(0.06172839506172839,0,0,0.06172839506172839,62.716049382716044,0)" xlink:href="#R"/><use transform="matrix(0.06172839506172839,0,0,0.06172839506172839,75.06172839506172,0)" xlink:href="#M"/><use transform="matrix(0.06172839506172839,0,0,0.06172839506172839,82.4074074074074,0)" xlink:href="#U"/><use transform="matrix(0.06172839506172839,0,0,0.06172839506172839,94.75308641975309,0)" xlink:href="#ag"/></g><path d="M240-174c0 40-23 61-54 70L253 0h-59l-57-94H76V0H24v-248c93 4 217-23 216 74zM76-134c48-2 112 12 112-38 0-48-66-32-112-35v73" id="ah"/><path d="M185-48c-13 30-37 53-82 52C43 2 14-33 14-96s30-98 90-98c62 0 83 45 84 108H66c0 31 8 55 39 56 18 0 30-7 34-22zm-45-69c5-46-57-63-70-21-2 6-4 13-4 21h74" id="ai"/><path d="M88-194c31-1 46 15 58 34l-1-101h50l1 261h-48c-2-10 0-23-3-31C134-8 116 4 84 4 32 4 16-41 15-95c0-56 19-97 73-99zm17 164c33 0 40-30 41-66 1-37-9-64-41-64s-38 30-39 65c0 43 13 65 39 65" id="aj"/><path d="M25-224v-37h50v37H25zM25 0v-190h50V0H25" id="ak"/><path d="M137-138c1-29-70-34-71-4 15 46 118 7 119 86 1 83-164 76-172 9l43-7c4 19 20 25 44 25 33 8 57-30 24-41C81-84 22-81 20-136c-2-80 154-74 161-7" id="al"/><g id="k"><use transform="matrix(0.06234567901234567,0,0,0.06234567901234567,0,0)" xlink:href="#ah"/><use transform="matrix(0.06234567901234567,0,0,0.06234567901234567,16.147530864197527,0)" xlink:href="#ai"/><use transform="matrix(0.06234567901234567,0,0,0.06234567901234567,28.61666666666666,0)" xlink:href="#aj"/><use transform="matrix(0.06234567901234567,0,0,0.06234567901234567,42.27037037037036,0)" xlink:href="#ak"/><use transform="matrix(0.06234567901234567,0,0,0.06234567901234567,48.50493827160493,0)" xlink:href="#al"/></g><path d="M190-63c-7 42-38 67-86 67-59 0-84-38-90-98-12-110 154-137 174-36l-49 2c-2-19-15-32-35-32-30 0-35 28-38 64-6 74 65 87 74 30" id="am"/><path d="M133-34C117-15 103 5 69 4 32 3 11-16 11-54c-1-60 55-63 116-61 1-26-3-47-28-47-18 1-26 9-28 27l-52-2c7-38 36-58 82-57s74 22 75 68l1 82c-1 14 12 18 25 15v27c-30 8-71 5-69-32zm-48 3c29 0 43-24 42-57-32 0-66-3-65 30 0 17 8 27 23 27" id="an"/><path d="M114-157C55-157 80-60 75 0H25v-261h50l-1 109c12-26 28-41 61-42 86-1 58 113 63 194h-50c-7-57 23-157-34-157" id="ao"/><g id="l"><use transform="matrix(0.06234567901234567,0,0,0.06234567901234567,0,0)" xlink:href="#am"/><use transform="matrix(0.06234567901234567,0,0,0.06234567901234567,12.469135802469133,0)" xlink:href="#an"/><use transform="matrix(0.06234567901234567,0,0,0.06234567901234567,24.938271604938265,0)" xlink:href="#am"/><use transform="matrix(0.06234567901234567,0,0,0.06234567901234567,37.4074074074074,0)" xlink:href="#ao"/><use transform="matrix(0.06234567901234567,0,0,0.06234567901234567,51.0611111111111,0)" xlink:href="#ai"/></g><path d="M87 75C49 33 22-17 22-94c0-76 28-126 65-167h31c-38 41-64 92-64 168S80 34 118 75H87" id="ap"/><path d="M233-177c-1 41-23 64-60 70L243 0h-38l-65-103H63V0H30v-248c88 3 205-21 203 71zM63-129c60-2 137 13 137-47 0-61-80-42-137-45v92" id="aq"/><path d="M100-194c63 0 86 42 84 106H49c0 40 14 67 53 68 26 1 43-12 49-29l28 8c-11 28-37 45-77 45C44 4 14-33 15-96c1-61 26-98 85-98zm52 81c6-60-76-77-97-28-3 7-6 17-6 28h103" id="ar"/><path d="M85-194c31 0 48 13 60 33l-1-100h32l1 261h-30c-2-10 0-23-3-31C134-8 116 4 85 4 32 4 16-35 15-94c0-66 23-100 70-100zm9 24c-40 0-46 34-46 75 0 40 6 74 45 74 42 0 51-32 51-76 0-42-9-74-50-73" id="as"/><path d="M24-231v-30h32v30H24zM24 0v-190h32V0H24" id="at"/><path d="M135-143c-3-34-86-38-87 0 15 53 115 12 119 90S17 21 10-45l28-5c4 36 97 45 98 0-10-56-113-15-118-90-4-57 82-63 122-42 12 7 21 19 24 35" id="au"/><path d="M30 0v-248h33v221h125V0H30" id="av"/><path d="M141-36C126-15 110 5 73 4 37 3 15-17 15-53c-1-64 63-63 125-63 3-35-9-54-41-54-24 1-41 7-42 31l-33-3c5-37 33-52 76-52 45 0 72 20 72 64v82c-1 20 7 32 28 27v20c-31 9-61-2-59-35zM48-53c0 20 12 33 32 33 41-3 63-29 60-74-43 2-92-5-92 41" id="aw"/><path d="M115-194c53 0 69 39 70 98 0 66-23 100-70 100C84 3 66-7 56-30L54 0H23l1-261h32v101c10-23 28-34 59-34zm-8 174c40 0 45-34 45-75 0-40-5-75-45-74-42 0-51 32-51 76 0 43 10 73 51 73" id="ax"/><path d="M33-261c38 41 65 92 65 168S71 34 33 75H2C39 34 66-17 66-93S39-220 2-261h31" id="ay"/><g id="m"><use transform="matrix(0.06234567901234567,0,0,0.06234567901234567,0,0)" xlink:href="#ap"/><use transform="matrix(0.06234567901234567,0,0,0.06234567901234567,7.4191358024691345,0)" xlink:href="#aq"/><use transform="matrix(0.06234567901234567,0,0,0.06234567901234567,23.566666666666663,0)" xlink:href="#ar"/><use transform="matrix(0.06234567901234567,0,0,0.06234567901234567,36.035802469135795,0)" xlink:href="#as"/><use transform="matrix(0.06234567901234567,0,0,0.06234567901234567,48.50493827160493,0)" xlink:href="#at"/><use transform="matrix(0.06234567901234567,0,0,0.06234567901234567,53.430246913580234,0)" xlink:href="#au"/><use transform="matrix(0.06234567901234567,0,0,0.06234567901234567,64.65246913580245,0)" xlink:href="#av"/><use transform="matrix(0.06234567901234567,0,0,0.06234567901234567,77.12160493827159,0)" xlink:href="#aw"/><use transform="matrix(0.06234567901234567,0,0,0.06234567901234567,89.59074074074073,0)" xlink:href="#ax"/><use transform="matrix(0.06234567901234567,0,0,0.06234567901234567,102.05987654320987,0)" xlink:href="#au"/><use transform="matrix(0.06234567901234567,0,0,0.06234567901234567,113.28209876543208,0)" xlink:href="#ay"/></g><path d="M205 0l-28-72H64L36 0H1l101-248h38L239 0h-34zm-38-99l-47-123c-12 45-31 82-46 123h93" id="az"/><path d="M115-194c55 1 70 41 70 98S169 2 115 4C84 4 66-9 55-30l1 105H24l-1-265h31l2 30c10-21 28-34 59-34zm-8 174c40 0 45-34 45-75s-6-73-45-74c-42 0-51 32-51 76 0 43 10 73 51 73" id="aA"/><path d="M24 0v-261h32V0H24" id="aB"/><path d="M96-169c-40 0-48 33-48 73s9 75 48 75c24 0 41-14 43-38l32 2c-6 37-31 61-74 61-59 0-76-41-82-99-10-93 101-131 147-64 4 7 5 14 7 22l-32 3c-4-21-16-35-41-35" id="aC"/><path d="M59-47c-2 24 18 29 38 22v24C64 9 27 4 27-40v-127H5v-23h24l9-43h21v43h35v23H59v120" id="aD"/><path d="M100-194c62-1 85 37 85 99 1 63-27 99-86 99S16-35 15-95c0-66 28-99 85-99zM99-20c44 1 53-31 53-75 0-43-8-75-51-75s-53 32-53 75 10 74 51 75" id="aE"/><path d="M117-194c89-4 53 116 60 194h-32v-121c0-31-8-49-39-48C34-167 62-67 57 0H25l-1-190h30c1 10-1 24 2 32 11-22 29-35 61-36" id="aF"/><g id="n"><use transform="matrix(0.06234567901234567,0,0,0.06234567901234567,0,0)" xlink:href="#az"/><use transform="matrix(0.06234567901234567,0,0,0.06234567901234567,14.96296296296296,0)" xlink:href="#aA"/><use transform="matrix(0.06234567901234567,0,0,0.06234567901234567,27.432098765432094,0)" xlink:href="#aA"/><use transform="matrix(0.06234567901234567,0,0,0.06234567901234567,39.90123456790123,0)" xlink:href="#aB"/><use transform="matrix(0.06234567901234567,0,0,0.06234567901234567,44.82654320987653,0)" xlink:href="#at"/><use transform="matrix(0.06234567901234567,0,0,0.06234567901234567,49.75185185185184,0)" xlink:href="#aC"/><use transform="matrix(0.06234567901234567,0,0,0.06234567901234567,60.97407407407406,0)" xlink:href="#aw"/><use transform="matrix(0.06234567901234567,0,0,0.06234567901234567,73.4432098765432,0)" xlink:href="#aD"/><use transform="matrix(0.06234567901234567,0,0,0.06234567901234567,79.67777777777776,0)" xlink:href="#at"/><use transform="matrix(0.06234567901234567,0,0,0.06234567901234567,84.60308641975307,0)" xlink:href="#aE"/><use transform="matrix(0.06234567901234567,0,0,0.06234567901234567,97.0722222222222,0)" xlink:href="#aF"/></g><path d="M210-169c-67 3-38 105-44 169h-31v-121c0-29-5-50-35-48C34-165 62-65 56 0H25l-1-190h30c1 10-1 24 2 32 10-44 99-50 107 0 11-21 27-35 58-36 85-2 47 119 55 194h-31v-121c0-29-5-49-35-48" id="aG"/><path d="M177-190C167-65 218 103 67 71c-23-6-38-20-44-43l32-5c15 47 100 32 89-28v-30C133-14 115 1 83 1 29 1 15-40 15-95c0-56 16-97 71-98 29-1 48 16 59 35 1-10 0-23 2-32h30zM94-22c36 0 50-32 50-73 0-42-14-75-50-75-39 0-46 34-46 75s6 73 46 73" id="aH"/><g id="o"><use transform="matrix(0.06234567901234567,0,0,0.06234567901234567,0,0)" xlink:href="#at"/><use transform="matrix(0.06234567901234567,0,0,0.06234567901234567,4.925308641975308,0)" xlink:href="#aG"/><use transform="matrix(0.06234567901234567,0,0,0.06234567901234567,23.566666666666663,0)" xlink:href="#aw"/><use transform="matrix(0.06234567901234567,0,0,0.06234567901234567,36.035802469135795,0)" xlink:href="#aH"/><use transform="matrix(0.06234567901234567,0,0,0.06234567901234567,48.50493827160493,0)" xlink:href="#ar"/></g><path d="M114-163C36-179 61-72 57 0H25l-1-190h30c1 12-1 29 2 39 6-27 23-49 58-41v29" id="aI"/><g id="p"><use transform="matrix(0.06234567901234567,0,0,0.06234567901234567,0,0)" xlink:href="#au"/><use transform="matrix(0.06234567901234567,0,0,0.06234567901234567,11.22222222222222,0)" xlink:href="#aD"/><use transform="matrix(0.06234567901234567,0,0,0.06234567901234567,17.456790123456784,0)" xlink:href="#aE"/><use transform="matrix(0.06234567901234567,0,0,0.06234567901234567,29.925925925925917,0)" xlink:href="#aI"/><use transform="matrix(0.06234567901234567,0,0,0.06234567901234567,37.34506172839505,0)" xlink:href="#ar"/><use transform="matrix(0.06234567901234567,0,0,0.06234567901234567,49.814197530864185,0)" xlink:href="#as"/></g><g id="q"><use transform="matrix(0.06234567901234567,0,0,0.06234567901234567,0,0)" xlink:href="#aw"/><use transform="matrix(0.06234567901234567,0,0,0.06234567901234567,12.469135802469133,0)" xlink:href="#aD"/></g><path d="M30-248c118-7 216 8 213 122C240-48 200 0 122 0H30v-248zM63-27c89 8 146-16 146-99s-60-101-146-95v194" id="aJ"/><path d="M143 0L79-87 56-68V0H24v-261h32v163l83-92h37l-77 82L181 0h-38" id="aK"/><path d="M106-169C34-169 62-67 57 0H25v-261h32l-1 103c12-21 28-36 61-36 89 0 53 116 60 194h-32v-121c2-32-8-49-39-48" id="aL"/><path d="M84 4C-5 8 30-112 23-190h32v120c0 31 7 50 39 49 72-2 45-101 50-169h31l1 190h-30c-1-10 1-25-2-33-11 22-28 36-60 37" id="aM"/><g id="r"><use transform="matrix(0.06234567901234567,0,0,0.06234567901234567,0,0)" xlink:href="#aJ"/><use transform="matrix(0.06234567901234567,0,0,0.06234567901234567,16.147530864197527,0)" xlink:href="#aE"/><use transform="matrix(0.06234567901234567,0,0,0.06234567901234567,28.61666666666666,0)" xlink:href="#aC"/><use transform="matrix(0.06234567901234567,0,0,0.06234567901234567,39.83888888888888,0)" xlink:href="#aK"/><use transform="matrix(0.06234567901234567,0,0,0.06234567901234567,51.0611111111111,0)" xlink:href="#ar"/><use transform="matrix(0.06234567901234567,0,0,0.06234567901234567,63.530246913580235,0)" xlink:href="#aI"/><use transform="matrix(0.06234567901234567,0,0,0.06234567901234567,70.94938271604937,0)" xlink:href="#aL"/><use transform="matrix(0.06234567901234567,0,0,0.06234567901234567,83.41851851851851,0)" xlink:href="#aM"/><use transform="matrix(0.06234567901234567,0,0,0.06234567901234567,95.88765432098765,0)" xlink:href="#ax"/></g><path fill="#333" d="M186 0v-106H76V0H24v-248h52v99h110v-99h50V0h-50" id="aN"/><path fill="#333" d="M136-208V0H84v-208H4v-40h212v40h-80" id="aO"/><path fill="#333" d="M24-248c93 1 206-16 204 79-1 75-69 88-152 82V0H24v-248zm52 121c47 0 100 7 100-41 0-47-54-39-100-39v80" id="aP"/><g id="s"><use transform="matrix(0.04938271604938272,0,0,0.04938271604938272,0,0)" xlink:href="#aN"/><use transform="matrix(0.04938271604938272,0,0,0.04938271604938272,12.790123456790125,0)" xlink:href="#aO"/><use transform="matrix(0.04938271604938272,0,0,0.04938271604938272,23.60493827160494,0)" xlink:href="#aO"/><use transform="matrix(0.04938271604938272,0,0,0.04938271604938272,34.41975308641975,0)" xlink:href="#aP"/></g><path fill="#333" d="M240-174c0 40-23 61-54 70L253 0h-59l-57-94H76V0H24v-248c93 4 217-23 216 74zM76-134c48-2 112 12 112-38 0-48-66-32-112-35v73" id="aQ"/><path fill="#333" d="M24 0v-248h195v40H76v63h132v40H76v65h150V0H24" id="aR"/><path fill="#333" d="M140-251c80 0 125 45 125 126 0 70-33 111-92 124 6 28 34 38 68 31l-1 36C177 83 129 55 120 2 51-6 15-50 15-125c0-81 44-126 125-126zm-1 214c52 0 73-35 73-88 0-50-21-86-72-86-52 0-73 35-73 86s22 88 72 88" id="aS"/><path fill="#333" d="M238-95c0 69-44 99-111 99C63 4 22-25 22-93v-155h51v151c-1 38 19 59 55 60 90 1 49-130 58-211h52v153" id="aT"/><path fill="#333" d="M169-182c-1-43-94-46-97-3 18 66 151 10 154 114 3 95-165 93-204 36-6-8-10-19-12-30l50-8c3 46 112 56 116 5-17-69-150-10-154-114-4-87 153-88 188-35 5 8 8 18 10 28" id="aU"/><g id="t"><use transform="matrix(0.04938271604938272,0,0,0.04938271604938272,0,0)" xlink:href="#aQ"/><use transform="matrix(0.04938271604938272,0,0,0.04938271604938272,12.790123456790125,0)" xlink:href="#aR"/><use transform="matrix(0.04938271604938272,0,0,0.04938271604938272,24.641975308641978,0)" xlink:href="#aS"/><use transform="matrix(0.04938271604938272,0,0,0.04938271604938272,38.46913580246914,0)" xlink:href="#aT"/><use transform="matrix(0.04938271604938272,0,0,0.04938271604938272,51.25925925925927,0)" xlink:href="#aR"/><use transform="matrix(0.04938271604938272,0,0,0.04938271604938272,63.111111111111114,0)" xlink:href="#aU"/><use transform="matrix(0.04938271604938272,0,0,0.04938271604938272,74.96296296296298,0)" xlink:href="#aO"/></g><path fill="#333" d="M4 7l51-268h42L46 7H4" id="aV"/><use transform="matrix(0.04938271604938272,0,0,0.04938271604938272,0,0)" xlink:href="#aV" id="u"/><path fill="#333" d="M140-251c80 0 125 45 125 126S219 4 139 4C58 4 15-44 15-125s44-126 125-126zm-1 214c52 0 73-35 73-88 0-50-21-86-72-86-52 0-73 35-73 86s22 88 72 88" id="aW"/><path fill="#333" d="M175 0L67-191c6 58 2 128 3 191H24v-248h59L193-55c-6-58-2-129-3-193h46V0h-61" id="aX"/><g id="v"><use transform="matrix(0.04938271604938272,0,0,0.04938271604938272,0,0)" xlink:href="#aQ"/><use transform="matrix(0.04938271604938272,0,0,0.04938271604938272,12.790123456790125,0)" xlink:href="#aR"/><use transform="matrix(0.04938271604938272,0,0,0.04938271604938272,24.641975308641978,0)" xlink:href="#aU"/><use transform="matrix(0.04938271604938272,0,0,0.04938271604938272,36.49382716049383,0)" xlink:href="#aP"/><use transform="matrix(0.04938271604938272,0,0,0.04938271604938272,48.345679012345684,0)" xlink:href="#aW"/><use transform="matrix(0.04938271604938272,0,0,0.04938271604938272,62.17283950617284,0)" xlink:href="#aX"/><use transform="matrix(0.04938271604938272,0,0,0.04938271604938272,74.96296296296298,0)" xlink:href="#aU"/><use transform="matrix(0.04938271604938272,0,0,0.04938271604938272,86.81481481481482,0)" xlink:href="#aR"/></g><path fill="#333" d="M67-125c0 53 21 87 73 88 37 1 54-22 65-47l45 17C233-25 199 4 140 4 58 4 20-42 15-125 8-235 124-281 211-232c18 10 29 29 36 50l-46 12c-8-25-30-41-62-41-52 0-71 34-72 86" id="aY"/><path fill="#333" d="M199 0l-22-63H83L61 0H9l90-248h61L250 0h-51zm-33-102l-36-108c-10 38-24 72-36 108h72" id="aZ"/><g id="w"><use transform="matrix(0.04938271604938272,0,0,0.04938271604938272,0,0)" xlink:href="#aY"/><use transform="matrix(0.04938271604938272,0,0,0.04938271604938272,12.790123456790125,0)" xlink:href="#aZ"/><use transform="matrix(0.04938271604938272,0,0,0.04938271604938272,25.58024691358025,0)" xlink:href="#aY"/><use transform="matrix(0.04938271604938272,0,0,0.04938271604938272,38.370370370370374,0)" xlink:href="#aN"/><use transform="matrix(0.04938271604938272,0,0,0.04938271604938272,51.1604938271605,0)" xlink:href="#aR"/></g><path fill="#333" d="M24-248c120-7 223 5 221 122C244-46 201 0 124 0H24v-248zM76-40c74 7 117-18 117-86 0-67-45-88-117-82v168" id="ba"/><g id="x"><use transform="matrix(0.04938271604938272,0,0,0.04938271604938272,0,0)" xlink:href="#aT"/><use transform="matrix(0.04938271604938272,0,0,0.04938271604938272,12.790123456790125,0)" xlink:href="#aP"/><use transform="matrix(0.04938271604938272,0,0,0.04938271604938272,24.641975308641978,0)" xlink:href="#ba"/><use transform="matrix(0.04938271604938272,0,0,0.04938271604938272,37.4320987654321,0)" xlink:href="#aZ"/><use transform="matrix(0.04938271604938272,0,0,0.04938271604938272,48.88888888888889,0)" xlink:href="#aO"/><use transform="matrix(0.04938271604938272,0,0,0.04938271604938272,59.70370370370371,0)" xlink:href="#aR"/><use transform="matrix(0.04938271604938272,0,0,0.04938271604938272,71.55555555555556,0)" xlink:href="#aU"/></g><g id="y"><use transform="matrix(0.04938271604938272,0,0,0.04938271604938272,0,0)" xlink:href="#aQ"/><use transform="matrix(0.04938271604938272,0,0,0.04938271604938272,12.790123456790125,0)" xlink:href="#aR"/><use transform="matrix(0.04938271604938272,0,0,0.04938271604938272,24.641975308641978,0)" xlink:href="#aZ"/><use transform="matrix(0.04938271604938272,0,0,0.04938271604938272,37.4320987654321,0)" xlink:href="#ba"/><use transform="matrix(0.04938271604938272,0,0,0.04938271604938272,50.22222222222223,0)" xlink:href="#aU"/></g><path fill="#333" d="M182-130c37 4 62 22 62 59C244 23 116-4 24 0v-248c84 5 203-23 205 63 0 31-19 50-47 55zM76-148c40-3 101 13 101-30 0-44-60-28-101-31v61zm0 110c48-3 116 14 116-37 0-48-69-32-116-35v72" id="bb"/><g id="z"><use transform="matrix(0.04938271604938272,0,0,0.04938271604938272,0,0)" xlink:href="#ba"/><use transform="matrix(0.04938271604938272,0,0,0.04938271604938272,12.790123456790125,0)" xlink:href="#aZ"/><use transform="matrix(0.04938271604938272,0,0,0.04938271604938272,24.24691358024692,0)" xlink:href="#aO"/><use transform="matrix(0.04938271604938272,0,0,0.04938271604938272,33.7283950617284,0)" xlink:href="#aZ"/><use transform="matrix(0.04938271604938272,0,0,0.04938271604938272,46.518518518518526,0)" xlink:href="#bb"/><use transform="matrix(0.04938271604938272,0,0,0.04938271604938272,59.30864197530866,0)" xlink:href="#aZ"/><use transform="matrix(0.04938271604938272,0,0,0.04938271604938272,72.09876543209877,0)" xlink:href="#aU"/><use transform="matrix(0.04938271604938272,0,0,0.04938271604938272,83.95061728395062,0)" xlink:href="#aR"/></g></defs></g></svg>